<?xml version="1.0" encoding="UTF-8"?>
<svg version="1.1" xmlns="http://www.w3.org/2000/svg" width="1332" height="222">
<path d="M0 0 C439.56 0 879.12 0 1332 0 C1332 73.26 1332 146.52 1332 222 C892.44 222 452.88 222 0 222 C0 148.74 0 75.48 0 0 Z " fill="#FEFEFE" transform="translate(0,0)"/>
<path d="M0 0 C36.96 0 73.92 0 112 0 C112 17.82 112 35.64 112 54 C105.11142921 58.23912049 98.38547971 62.36415985 91.375 66.3125 C84.10616233 70.52965866 78.6079854 75.76242789 73 82 C69.79390698 78.99601026 68.04406702 75.87667883 66 72 C66 71.34 66 70.68 66 70 C60.39157931 69.50219491 56.74016041 71.15367961 51.828125 73.53515625 C51.06449646 73.89266464 50.30086792 74.25017303 49.51409912 74.61851501 C47.08748137 75.75574176 44.66831118 76.90772634 42.25 78.0625 C39.81686245 79.21954835 37.38232755 80.37313662 34.9430542 81.51719666 C33.42796954 82.22817954 31.91647509 82.94687246 30.40899658 83.67384338 C28.63298453 84.50919289 26.81901368 85.26296752 25 86 C24.34 85.67 23.68 85.34 23 85 C24.65 81.7 26.3 78.4 28 75 C28.66 75 29.32 75 30 75 C30.26353271 74.29117676 30.52706543 73.58235352 30.79858398 72.85205078 C32.0625922 69.8514119 33.56159514 67.16686595 35.22265625 64.3671875 C35.84333984 63.31402344 36.46402344 62.26085937 37.10351562 61.17578125 C37.74998047 60.08652344 38.39644531 58.99726562 39.0625 57.875 C40.34761393 55.70724587 41.63028492 53.53804106 42.91015625 51.3671875 C43.47871338 50.40925293 44.04727051 49.45131836 44.63305664 48.46435547 C46.10712405 45.98468639 46.10712405 45.98468639 47 43 C47.66 43 48.32 43 49 43 C49.33451172 42.02933594 49.33451172 42.02933594 49.67578125 41.0390625 C51.82705406 36.10192314 54.78312568 31.6250395 57.63085938 27.0625 C58.07623047 26.32773438 58.52160156 25.59296875 58.98046875 24.8359375 C59.39192139 24.17126465 59.80337402 23.5065918 60.22729492 22.82177734 C61.3100953 20.8276821 61.3100953 20.8276821 60 18 C53.85365653 18.53139396 48.41380684 19.56532018 42.5703125 21.50390625 C41.81330048 21.7466478 41.05628845 21.98938934 40.27633667 22.23948669 C37.88988089 23.00581194 35.5072817 23.78330543 33.125 24.5625 C30.72085447 25.34375105 28.31596743 26.12248626 25.90939331 26.89622498 C24.41985091 27.37561047 22.93175953 27.85953418 21.44534302 28.348526 C18.50921027 29.29743066 16.10725394 30 13 30 C13.33 31.65 13.66 33.3 14 35 C15.07483643 34.66154053 16.14967285 34.32308105 17.25708008 33.97436523 C21.24067109 32.72249878 25.22778094 31.48218843 29.21606445 30.24536133 C30.94263524 29.70815186 32.668232 29.16780151 34.39282227 28.62426758 C36.87007056 27.84411605 39.35058744 27.07527963 41.83203125 26.30859375 C42.60400345 26.06282089 43.37597565 25.81704803 44.17134094 25.56382751 C49.65838488 23.88612829 49.65838488 23.88612829 53 25 C52.52393311 25.80179688 52.04786621 26.60359375 51.55737305 27.4296875 C51.23764023 27.96821854 50.91790741 28.50674957 50.58848572 29.06159973 C49.85525689 30.29644198 49.12190443 31.53121082 48.38844299 32.76591492 C46.300716 36.28082609 44.2153 39.79707753 42.13378906 43.31567383 C38.07090538 50.17838401 33.99478027 57.03102218 29.83796692 63.83737183 C28.06072578 66.74910208 26.29399541 69.66714177 24.52798462 72.58569336 C23.6779061 73.98375454 22.82259118 75.37864553 21.96200562 76.77026367 C20.75819736 78.71797472 19.5727616 80.67580265 18.390625 82.63671875 C17.71032227 83.74748779 17.03001953 84.85825684 16.32910156 86.00268555 C14.87009239 89.29296027 14.86386058 90.64496005 16 94 C21.1440895 92.42492342 25.89614104 90.28575177 30.7578125 88.015625 C32.451469 87.23751044 34.14549046 86.46018987 35.83984375 85.68359375 C38.49436288 84.4640831 41.1463326 83.24002292 43.79248047 82.00244141 C46.35787413 80.80487827 48.93171073 79.62743956 51.5078125 78.453125 C52.69541672 77.88927094 52.69541672 77.88927094 53.90701294 77.31402588 C54.64813324 76.97997742 55.38925354 76.64592896 56.15283203 76.30175781 C57.1249614 75.85113983 57.1249614 75.85113983 58.11672974 75.39141846 C60 75 60 75 62.13571167 75.74676514 C64.90526114 77.60854579 65.82534409 80.04698397 67.3125 83 C69.48361539 87.1986341 69.48361539 87.1986341 72.97265625 90.1640625 C75.06091002 90.70965982 75.06091002 90.70965982 78 91 C78.33 91.66 78.66 92.32 79 93 C91.35620885 91.06934237 100.96505915 86.62357563 112 81 C112 91.23 112 101.46 112 112 C75.04 112 38.08 112 0 112 C0 75.04 0 38.08 0 0 Z " fill="#FEFEFE" transform="translate(39,57)"/>
<path d="M0 0 C40.26 0 80.52 0 122 0 C122 18.15 122 36.3 122 55 C130.17524303 50.54167995 130.17524303 50.54167995 138.30859375 46.0078125 C139.15744141 45.53085938 140.00628906 45.05390625 140.88085938 44.5625 C142.61608565 43.58684947 144.34775639 42.60485349 146.07617188 41.6171875 C146.91599609 41.14796875 147.75582031 40.67875 148.62109375 40.1953125 C149.3680249 39.77266113 150.11495605 39.35000977 150.88452148 38.91455078 C153 38 153 38 157 38 C158.921875 40.51953125 158.921875 40.51953125 160.75 43.8125 C161.36359375 44.89144531 161.9771875 45.97039062 162.609375 47.08203125 C164 50 164 50 164 53 C163.3922876 53.34144043 162.7845752 53.68288086 162.15844727 54.03466797 C159.29216225 55.64639648 156.4271272 57.26032673 153.5625 58.875 C152.00559448 59.75224731 152.00559448 59.75224731 150.41723633 60.6472168 C143.23854162 64.7038279 136.1095311 68.83392457 129.05493164 73.10302734 C124.21350706 76 124.21350706 76 122 76 C122 91.18 122 106.36 122 122 C81.74 122 41.48 122 0 122 C0 81.74 0 41.48 0 0 Z M5 5 C5 41.96 5 78.92 5 117 C41.96 117 78.92 117 117 117 C117 106.77 117 96.54 117 86 C114.855 87.093125 112.71 88.18625 110.5 89.3125 C101.78081206 93.68159635 93.7031825 96.48387773 84 98 C83.34 97.01 82.68 96.02 82 95 C80.4221875 94.7834375 80.4221875 94.7834375 78.8125 94.5625 C75.65424539 93.83722232 74.98685165 92.9810169 73.08984375 90.2421875 C71.87909168 88.06746085 70.70705885 85.87064602 69.578125 83.65234375 C68.21849736 80.70972767 68.21849736 80.70972767 65 80 C62.98219304 80.58628773 62.98219304 80.58628773 60.8515625 81.64648438 C60.02060059 82.03018188 59.18963867 82.41387939 58.33349609 82.8092041 C57.43969238 83.23310425 56.54588867 83.65700439 55.625 84.09375 C54.70412598 84.51926147 53.78325195 84.94477295 52.83447266 85.38317871 C49.88525313 86.74621192 46.94205302 88.12157235 44 89.5 C40.13003201 91.31317972 36.25452437 93.11362463 32.375 94.90625 C31.48119629 95.33015015 30.58739258 95.75405029 29.66650391 96.1907959 C28.83554199 96.57449341 28.00458008 96.95819092 27.1484375 97.35351562 C26.05281494 97.86767029 26.05281494 97.86767029 24.93505859 98.39221191 C23 99 23 99 20 98 C20.52495139 93.02864947 22.0447087 89.72947019 24.62109375 85.46875 C24.99304871 84.84754272 25.36500366 84.22633545 25.74822998 83.58630371 C26.96912317 81.55204809 28.20317661 79.52612939 29.4375 77.5 C30.28840987 76.08777762 31.13841447 74.67500942 31.98754883 73.26171875 C33.75303873 70.32641413 35.52379278 67.39438555 37.29882812 64.46484375 C39.96796823 60.05755806 42.61917974 55.63969162 45.265625 51.21875 C46.10097658 49.82355797 46.93634411 48.42837549 47.77172852 47.03320312 C48.17303986 46.36297119 48.5743512 45.69273926 48.98782349 45.00219727 C51.98620408 39.99805711 54.99340973 34.99921029 58 30 C53.84945318 28.61648439 50.84680648 30.0304094 46.83203125 31.30859375 C46.03721848 31.55416519 45.2424057 31.79973663 44.42350769 32.05274963 C41.88387627 32.83948235 39.34823843 33.63831893 36.8125 34.4375 C35.09204593 34.9728063 33.37134548 35.50732147 31.65039062 36.04101562 C27.43067942 37.35151186 23.21450991 38.67287639 19 40 C18.67 38.35 18.34 36.7 18 35 C19.13953125 34.77570313 20.2790625 34.55140625 21.453125 34.3203125 C26.01255035 33.30809865 30.46237978 31.99564928 34.921875 30.6171875 C35.63420288 30.39718079 36.34653076 30.17717407 37.08044434 29.95050049 C40.06133068 29.02652013 43.04068048 28.0977981 46.01806641 27.16259766 C48.21331218 26.47464924 50.41110777 25.79540844 52.609375 25.1171875 C53.2771698 24.90472382 53.9449646 24.69226013 54.63299561 24.47335815 C58.189603 23.38172787 61.27685529 22.75827211 65 23 C66 26 66 26 65.01196289 28.14477539 C64.2500061 29.35895142 64.2500061 29.35895142 63.47265625 30.59765625 C62.92802734 31.48130859 62.38339844 32.36496094 61.82226562 33.27539062 C61.24154297 34.19513672 60.66082031 35.11488281 60.0625 36.0625 C58.92462313 37.88437436 57.7903171 39.7084854 56.66015625 41.53515625 C56.15105713 42.343479 55.64195801 43.15180176 55.11743164 43.98461914 C53.83836495 45.90745001 53.83836495 45.90745001 54 48 C53.34 48 52.68 48 52 48 C51.69449219 48.65742187 51.38898438 49.31484375 51.07421875 49.9921875 C47.38629373 57.65891613 43.1433265 64.83784575 38.6081543 72.03076172 C38.1419165 72.77600098 37.67567871 73.52124023 37.1953125 74.2890625 C36.77266113 74.95631348 36.35000977 75.62356445 35.91455078 76.31103516 C34.8412799 77.97300644 34.8412799 77.97300644 35 80 C34.34 80 33.68 80 33 80 C31.35 83.63 29.7 87.26 28 91 C32.55868157 89.57780994 36.84355155 87.77334764 41.15625 85.7421875 C42.52190869 85.11018692 43.8878013 84.47869162 45.25390625 83.84765625 C47.38253448 82.86078703 49.50936473 81.87059319 51.63232422 80.87158203 C53.69816016 79.90141699 55.77023502 78.94580729 57.84375 77.9921875 C58.47204712 77.6922287 59.10034424 77.3922699 59.74768066 77.08322144 C63.66075732 75.29977411 66.71178288 74.6858479 71 75 C71.2475 75.86625 71.495 76.7325 71.75 77.625 C73.06778613 81.18302254 74.80186822 83.9226155 77 87 C77.99 86.154375 78.98 85.30875 80 84.4375 C80.65025146 83.88457275 81.30050293 83.33164551 81.97045898 82.76196289 C83.23626517 81.66304274 84.48431397 80.54289702 85.70336914 79.39233398 C91.37823583 74.11213168 97.70810636 70.41609383 104.4375 66.625 C106.60348477 65.38910711 108.76888326 64.15218598 110.93359375 62.9140625 C111.88290771 62.3773291 112.83222168 61.8405957 113.81030273 61.28759766 C115.90381151 60.17989286 115.90381151 60.17989286 117 59 C117 41.18 117 23.36 117 5 C80.04 5 43.08 5 5 5 Z " fill="#1C1C1C" transform="translate(34,52)"/>
<path d="M0 0 C1.10085938 -0.00515625 2.20171875 -0.0103125 3.3359375 -0.015625 C6.74782812 0.25991961 9.39263416 1.1642566 12.625 2.25 C15.07640859 2.52821125 17.53679765 2.73557345 20 2.875 C21.24523437 2.94976562 22.49046875 3.02453125 23.7734375 3.1015625 C24.71445312 3.15054688 25.65546875 3.19953125 26.625 3.25 C26.625 4.9 26.625 6.55 26.625 8.25 C23.655 8.25 20.685 8.25 17.625 8.25 C17.975625 8.889375 18.32625 9.52875 18.6875 10.1875 C19.99782684 14.46790101 19.87594241 17.95264491 18.625 22.25 C15.55925755 27.5996177 11.55809366 30.51098979 5.625 32.25 C2.90135736 32.4606156 0.36432003 32.39417474 -2.375 32.25 C-2.375 34.56 -2.375 36.87 -2.375 39.25 C-1.281875 39.188125 -0.18875 39.12625 0.9375 39.0625 C7.98923076 39.0625 15.98061058 40.88015012 21.625 45.25 C23.95913902 48.75120853 24.29225392 50.64822326 24.19140625 54.76953125 C22.87493622 60.53476209 18.25109625 64.28042781 13.6875 67.703125 C8.6964977 70.47157159 3.52264706 70.64437215 -2.0625 70.75 C-2.78751709 70.76877197 -3.51253418 70.78754395 -4.25952148 70.80688477 C-9.38216075 70.74515205 -12.32821403 69.61540913 -16.375 66.25 C-19.17427794 63.31489212 -19.78726807 61.34366296 -19.75 57.3125 C-19.60419029 53.18730033 -19.29737211 50.36719692 -16.375 47.25 C-13.1875 45.9375 -13.1875 45.9375 -10.375 45.25 C-10.436875 44.0125 -10.49875 42.775 -10.5625 41.5 C-10.58227998 37.76817694 -9.95579842 36.04586495 -7.375 33.25 C-7.375 32.59 -7.375 31.93 -7.375 31.25 C-8.468125 30.693125 -9.56125 30.13625 -10.6875 29.5625 C-14.1841404 27.78119263 -15.67393157 25.78416007 -17.375 22.25 C-18.33580191 17.20230879 -18.55585187 12.30519848 -15.9453125 7.76171875 C-11.12227024 2.10033653 -7.51901858 -0.0350537 0 0 Z " fill="#191919" transform="translate(738.375,86.75)"/>
<path d="M0 0 C4.94375668 -0.12468733 9.88657507 -0.2148439 14.83154297 -0.2746582 C16.50943977 -0.29962211 18.18722986 -0.33360619 19.86474609 -0.37719727 C38.66148078 -0.85299311 38.66148078 -0.85299311 46 5 C49.74454554 9.35817684 49.50376021 13.58958389 49.34765625 19.12109375 C48.87239799 23.05665931 47.72249426 25.13421657 45 28 C41.79874501 30.46763405 39.03721354 32.37889022 35 33 C36.0725 33.515625 37.145 34.03125 38.25 34.5625 C44.67402346 38.31092415 46.03044292 43.94664954 47.9375 50.75 C48.21464844 51.85859375 48.49179687 52.9671875 48.77734375 54.109375 C50.26214459 57.61976677 51.57755481 58.45150102 55 60 C57.69254991 60.70670728 57.69254991 60.70670728 60 61 C60 62.65 60 64.3 60 66 C56.27400457 67.24199848 52.87020783 67.53508555 49 67 C43.58638073 64.13997472 40.80141867 61.24849437 38.75390625 55.50390625 C38.14574411 53.53282701 37.56066606 51.55622015 36.98242188 49.57617188 C35.65510426 45.29353218 34.13048095 42.22410281 31 39 C26.24350993 36.32509219 26.24350993 36.32509219 17 36 C17.33 43.92 17.66 51.84 18 60 C19.98 60.33 21.96 60.66 24 61 C24 62.32 24 63.64 24 65 C16.08 65 8.16 65 0 65 C0 63.68 0 62.36 0 61 C3.465 60.505 3.465 60.505 7 60 C6.67 41.85 6.34 23.7 6 5 C3.03 4.505 3.03 4.505 0 4 C0 2.68 0 1.36 0 0 Z " fill="#171717" transform="translate(268,70)"/>
<path d="M0 0 C6.72944808 3.9723344 11.39984365 9.60444252 13.44921875 17.125 C14.49402354 25.7913808 13.66467996 32.9834452 8.44921875 40.125 C3.7107918 45.25751395 0.23781088 47.84350899 -6.7578125 48.36328125 C-19.02367404 48.61577461 -19.02367404 48.61577461 -24.55078125 44.125 C-30.30735169 38.58312682 -32.74958376 33.4786479 -32.93139648 25.31396484 C-32.90970005 17.33911082 -32.62056053 11.31753365 -26.8671875 5.390625 C-19.32514838 -1.42153937 -9.8236875 -3.36984073 0 0 Z " fill="#1B1B1B" transform="translate(1072.55078125,87.875)"/>
<path d="M0 0 C5.87465063 3.3456022 9.51373458 8.78899325 12.8359375 14.52734375 C14.65535957 22.16891645 13.74530289 30.038153 10.4609375 37.15234375 C7.52049971 41.6275837 3.88605641 45.94235352 -1.32421875 47.75 C-7.75172705 48.91760733 -15.56507032 49.68351827 -21.5390625 46.58984375 C-28.99895781 40.52867881 -32.53029896 34.69004906 -33.8203125 25.05078125 C-34.15159842 18.12138414 -32.09628258 11.72962716 -27.7890625 6.33984375 C-20.2187568 -1.54207259 -10.62123083 -3.54585706 0 0 Z " fill="#1B1B1B" transform="translate(1242.5390625,87.84765625)"/>
<path d="M0 0 C1.640625 1.1875 1.640625 1.1875 3.125 2.625 C4.07375 3.40875 5.0225 4.1925 6 5 C9.50698281 4.40306676 12.07498068 2.96250966 15.25 1.375 C19.97709266 -0.35826731 24.01968128 -0.75126842 29 0 C32.42112224 1.85310788 33.62071513 3.08186439 35.09912109 6.66064453 C36.11105546 10.41165761 36.349581 13.94810893 36.4140625 17.8046875 C36.43342865 18.5286673 36.4527948 19.25264709 36.4727478 19.99856567 C36.53209886 22.29059398 36.57874878 24.58267374 36.625 26.875 C36.66322087 28.43752081 36.70227494 30.00002148 36.7421875 31.5625 C36.83776308 35.37483465 36.92195606 39.1872678 37 43 C38.98 43.33 40.96 43.66 43 44 C43 45.32 43 46.64 43 48 C35.74 48 28.48 48 21 48 C21 46.68 21 45.36 21 44 C23.475 43.505 23.475 43.505 26 43 C26.09905303 38.65842948 26.17155301 34.31746146 26.21972656 29.97509766 C26.23981301 28.4987441 26.26708801 27.02246981 26.30175781 25.54638672 C26.35041184 23.42135038 26.37299673 21.29736766 26.390625 19.171875 C26.41157227 17.8940918 26.43251953 16.61630859 26.45410156 15.29980469 C26.27156127 11.93083001 26.27156127 11.93083001 24.11206055 9.57836914 C21.66464546 7.74938538 20.57517486 7.53608307 17.5625 7.6875 C16.82128906 7.71199219 16.08007812 7.73648438 15.31640625 7.76171875 C12.85590524 8.01482256 10.42545134 8.51490973 8 9 C8.33 20.22 8.66 31.44 9 43 C10.65 43.33 12.3 43.66 14 44 C14 45.32 14 46.64 14 48 C7.07 48 0.14 48 -7 48 C-7 46.68 -7 45.36 -7 44 C-4.525 43.505 -4.525 43.505 -2 43 C-1.95046313 38.80079763 -1.91421589 34.60175131 -1.89013672 30.40234375 C-1.88009573 28.97457922 -1.86646019 27.54683517 -1.84912109 26.11914062 C-1.82478848 24.06375059 -1.81349798 22.00863308 -1.8046875 19.953125 C-1.79421387 18.71723633 -1.78374023 17.48134766 -1.77294922 16.20800781 C-1.98886514 13.15732473 -2.22287215 11.46154726 -4 9 C-6.79748841 8.06750386 -8.54320881 7.86523848 -11.4375 7.875 C-12.19933594 7.87242188 -12.96117187 7.86984375 -13.74609375 7.8671875 C-16.32092715 7.94915575 -16.32092715 7.94915575 -20 9 C-20 20.55 -20 32.1 -20 44 C-18.02 44 -16.04 44 -14 44 C-14 45.32 -14 46.64 -14 48 C-21.26 48 -28.52 48 -36 48 C-36 46.68 -36 45.36 -36 44 C-33.03 43.505 -33.03 43.505 -30 43 C-29.67 31.45 -29.34 19.9 -29 8 C-31.31 8 -33.62 8 -36 8 C-36 6.68 -36 5.36 -36 4 C-25.62642369 0.55580866 -25.62642369 0.55580866 -20 1 C-20 2.32 -20 3.64 -20 5 C-19.46890625 4.72285156 -18.9378125 4.44570312 -18.390625 4.16015625 C-17.68421875 3.79792969 -16.9778125 3.43570313 -16.25 3.0625 C-15.55390625 2.70285156 -14.8578125 2.34320313 -14.140625 1.97265625 C-9.68114683 -0.05363949 -4.85982472 -0.90415344 0 0 Z " fill="#171717" transform="translate(620,87)"/>
<path d="M0 0 C2.64 0 5.28 0 8 0 C10.82345995 6.18306546 13.38407485 12.4271562 15.78515625 18.78515625 C16.12751816 19.68568222 16.46988007 20.58620819 16.82261658 21.51402283 C17.9049438 24.36262363 18.98376355 27.21253775 20.0625 30.0625 C20.78948542 31.97730017 21.51669708 33.89201445 22.24414062 35.80664062 C25.72989355 44.98622951 25.72989355 44.98622951 27.13821411 48.72805786 C27.71417061 50.24646267 28.29942298 51.76137291 28.89376831 53.27267456 C30.0812767 56.32232812 31 58.69622337 31 62 C33.97 62.495 33.97 62.495 37 63 C37 64.32 37 65.64 37 67 C29.41 67 21.82 67 14 67 C14 65.68 14 64.36 14 63 C16.97 62.505 16.97 62.505 20 62 C19.5662812 60.49890232 19.12777365 58.99918823 18.6875 57.5 C18.44386719 56.6646875 18.20023438 55.829375 17.94921875 54.96875 C16.76574022 51.26733567 15.36446992 47.63858645 14 44 C6.41 43.67 -1.18 43.34 -9 43 C-9.99 46.3 -10.98 49.6 -12 53 C-13 56.33333333 -14 59.66666667 -15 63 C-12.69 63 -10.38 63 -8 63 C-8 64.32 -8 65.64 -8 67 C-14.6 67 -21.2 67 -28 67 C-28 65.68 -28 64.36 -28 63 C-25.03 62.505 -25.03 62.505 -22 62 C-21.82916397 61.40669388 -21.65832794 60.81338776 -21.48231506 60.20210266 C-19.57043326 53.68312203 -17.3840649 47.29976103 -15.05859375 40.91796875 C-14.69024918 39.90076248 -14.3219046 38.88355621 -13.94239807 37.83552551 C-13.16966678 35.70311814 -12.39563732 33.57118078 -11.62036133 31.43969727 C-10.43484953 28.18021272 -9.25321347 24.91934369 -8.07226562 21.65820312 C-7.31793166 19.578044 -6.56338194 17.4979631 -5.80859375 15.41796875 C-5.45647324 14.44707809 -5.10435272 13.47618744 -4.74156189 12.47587585 C-4.41104324 11.56755508 -4.0805246 10.65923431 -3.73999023 9.72338867 C-3.4514769 8.92970383 -3.16296356 8.13601898 -2.8657074 7.31828308 C-1.94870997 4.86265012 -0.98234788 2.4301459 0 0 Z " fill="#181818" transform="translate(887,68)"/>
<path d="M0 0 C4.1897182 3.53798426 5.66306951 6.70673444 6.15307617 12.17724609 C6.15260745 13.5843993 6.13603108 14.99161615 6.10546875 16.3984375 C6.10122391 17.14461334 6.09697906 17.89078918 6.09260559 18.65957642 C6.07592382 21.02343098 6.03829339 23.38640676 6 25.75 C5.98493949 27.3606647 5.97125348 28.97134287 5.95898438 30.58203125 C5.92605504 34.51335515 5.87434762 38.44402901 5.8125 42.375 C7.7925 42.375 9.7725 42.375 11.8125 42.375 C11.8125 43.695 11.8125 45.015 11.8125 46.375 C7.1925 46.375 2.5725 46.375 -2.1875 46.375 C-2.6825 43.9 -2.6825 43.9 -3.1875 41.375 C-3.79078125 41.72433594 -4.3940625 42.07367188 -5.015625 42.43359375 C-5.81484375 42.88863281 -6.6140625 43.34367187 -7.4375 43.8125 C-8.62085938 44.49119141 -8.62085938 44.49119141 -9.828125 45.18359375 C-14.66501916 47.62606514 -19.83977632 48.22619477 -25.1875 47.375 C-28.25991047 45.66668878 -30.5929452 43.56410959 -32.1875 40.375 C-32.36091267 38.60960219 -32.4544075 36.83580841 -32.5 35.0625 C-32.53738281 34.11761719 -32.57476563 33.17273438 -32.61328125 32.19921875 C-32.05174683 28.47454546 -30.86814414 27.00316823 -28.1875 24.375 C-20.68441046 20.10371981 -12.8717834 17.41501974 -4.1875 17.375 C-4.27483576 15.76982903 -4.38302224 14.16578338 -4.5 12.5625 C-4.55800781 11.66917969 -4.61601563 10.77585937 -4.67578125 9.85546875 C-5.02913605 7.37438814 -5.02913605 7.37438814 -6.375 5.5625 C-8.93559339 3.88486985 -10.84586591 4.08058939 -13.875 4.1875 C-14.86886719 4.21457031 -15.86273437 4.24164063 -16.88671875 4.26953125 C-18.02560547 4.32173828 -18.02560547 4.32173828 -19.1875 4.375 C-19.5175 7.015 -19.8475 9.655 -20.1875 12.375 C-21.66656892 12.40189216 -23.14577483 12.42134621 -24.625 12.4375 C-25.86056641 12.45490234 -25.86056641 12.45490234 -27.12109375 12.47265625 C-29.1875 12.375 -29.1875 12.375 -30.1875 11.375 C-30.03330717 7.28889009 -29.85622511 5.08193797 -27 2.0625 C-19.44699527 -2.46930284 -8.10826107 -4.1580826 0 0 Z " fill="#1C1C1C" transform="translate(701.1875,88.625)"/>
<path d="M0 0 C3.7043515 3.7043515 5.24591022 6.93382132 5.71557617 12.17724609 C5.71510745 13.5843993 5.69853108 14.99161615 5.66796875 16.3984375 C5.66372391 17.14461334 5.65947906 17.89078918 5.65510559 18.65957642 C5.63842382 21.02343098 5.60079339 23.38640676 5.5625 25.75 C5.54743949 27.3606647 5.53375348 28.97134287 5.52148438 30.58203125 C5.48855504 34.51335515 5.43684762 38.44402901 5.375 42.375 C8.345 42.87 8.345 42.87 11.375 43.375 C11.375 44.365 11.375 45.355 11.375 46.375 C6.755 46.375 2.135 46.375 -2.625 46.375 C-3.12 43.9 -3.12 43.9 -3.625 41.375 C-4.29144531 41.808125 -4.95789063 42.24125 -5.64453125 42.6875 C-12.26471513 46.68738733 -17.84452295 49.05726531 -25.625 47.375 C-29.28282864 45.47781579 -31.30016238 43.34951285 -32.625 39.375 C-33.20947379 34.44872091 -33.52045066 30.66221032 -30.625 26.5 C-22.548676 20.7792705 -14.08680611 18.69117129 -4.625 16.375 C-4.17597707 10.92778187 -4.17597707 10.92778187 -5.9375 5.9375 C-10.20741991 3.45498843 -14.76284537 3.5426605 -19.625 3.375 C-19.625 6.345 -19.625 9.315 -19.625 12.375 C-21.27074566 12.40188151 -22.91661413 12.42134123 -24.5625 12.4375 C-25.47902344 12.44910156 -26.39554687 12.46070312 -27.33984375 12.47265625 C-29.625 12.375 -29.625 12.375 -30.625 11.375 C-30.47398703 7.37315623 -30.26808262 5.09603203 -27.5625 2.0625 C-19.6173899 -2.50171219 -8.43228751 -3.77999095 0 0 Z " fill="#1A1A1A" transform="translate(412.625,88.625)"/>
<path d="M0 0 C4.15346582 4.04416409 5.69660717 7.19418252 5.86735535 13.06282043 C5.87374527 13.7807225 5.88013519 14.49862457 5.88671875 15.23828125 C5.90466995 15.98587204 5.92262115 16.73346283 5.94111633 17.50370789 C5.99503849 19.87741558 6.02905554 22.25092432 6.0625 24.625 C6.09568921 26.24026195 6.13018035 27.85549771 6.16601562 29.47070312 C6.25075399 33.41782476 6.31765049 37.36488927 6.375 41.3125 C9.345 41.8075 9.345 41.8075 12.375 42.3125 C12.375 43.6325 12.375 44.9525 12.375 46.3125 C7.425 46.3125 2.475 46.3125 -2.625 46.3125 C-3.285 44.9925 -3.945 43.6725 -4.625 42.3125 C-5.16769531 42.58964844 -5.71039062 42.86679688 -6.26953125 43.15234375 C-7.34267578 43.69568359 -7.34267578 43.69568359 -8.4375 44.25 C-9.49904297 44.78947266 -9.49904297 44.78947266 -10.58203125 45.33984375 C-15.28585908 47.57933348 -19.50316299 47.80845253 -24.625 47.3125 C-27.77347243 46.012044 -29.24240061 44.7610648 -31.4375 42.1875 C-33.11224084 38.13286427 -33.41886467 34.63295581 -32.625 30.3125 C-27.74053497 22.22260479 -19.79950323 20.21090718 -11.125 18.0625 C-8.62818672 17.46339685 -6.1284298 16.88367088 -3.625 16.3125 C-3.90711877 14.6858152 -4.20102375 13.06117104 -4.5 11.4375 C-4.66242188 10.53257813 -4.82484375 9.62765625 -4.9921875 8.6953125 C-5.45544703 6.14744012 -5.45544703 6.14744012 -7.625 4.3125 C-10.51723503 3.84853307 -10.51723503 3.84853307 -13.75 3.6875 C-15.39355469 3.57535156 -15.39355469 3.57535156 -17.0703125 3.4609375 C-17.91335938 3.41195312 -18.75640625 3.36296875 -19.625 3.3125 C-19.625 6.2825 -19.625 9.2525 -19.625 12.3125 C-22.925 12.3125 -26.225 12.3125 -29.625 12.3125 C-30.4375 10.1875 -30.4375 10.1875 -30.625 7.3125 C-27.70554963 2.44674938 -24.73769538 0.30822048 -19.29296875 -1.21484375 C-12.65201239 -2.39135286 -6.19302042 -2.88295778 0 0 Z " fill="#191919" transform="translate(1158.625,88.6875)"/>
<path d="M0 0 C4.57423748 2.67226763 6.84388686 6.40666059 8.5 11.375 C8.5 14.675 8.5 17.975 8.5 21.375 C-1.73 21.375 -11.96 21.375 -22.5 21.375 C-21.19054715 31.15155382 -21.19054715 31.15155382 -16.5 38.375 C-11.83491344 41.2932035 -6.82097798 41.00617808 -1.5 40.375 C1.41131389 39.2967356 3.79950736 37.94619572 6.5 36.375 C7.16 36.375 7.82 36.375 8.5 36.375 C8.5 38.355 8.5 40.335 8.5 42.375 C7.25264433 43.0259259 6.00198168 43.67051669 4.75 44.3125 C4.05390625 44.67214844 3.3578125 45.03179687 2.640625 45.40234375 C-3.86302869 48.35747107 -12.06598502 48.56408964 -18.91796875 46.7265625 C-24.82164359 44.05449304 -29.17440383 39.58911675 -31.640625 33.609375 C-33.49643349 26.62478668 -34.00406266 17.69369186 -31.0625 10.9375 C-24.36364431 -0.05055107 -12.23238335 -5.55179734 0 0 Z " fill="#1E1E1E" transform="translate(802.5,88.625)"/>
<path d="M0 0 C4.54656808 3.32675713 8.14962533 7.35194448 9.5625 12.875 C9.5625 15.845 9.5625 18.815 9.5625 21.875 C-0.9975 21.875 -11.5575 21.875 -22.4375 21.875 C-20.33745138 32.59775813 -20.33745138 32.59775813 -14.4375 39.875 C-9.20394573 41.61951809 -3.23328127 41.90431497 1.9921875 39.98046875 C3.87955823 39.00221616 5.72504376 37.94406545 7.5625 36.875 C8.2225 36.875 8.8825 36.875 9.5625 36.875 C10.0625 39.0625 10.0625 39.0625 9.5625 41.875 C2.79753522 47.56766267 -4.07532735 48.40375145 -12.69140625 48.21875 C-19.2669367 47.61536452 -22.96835377 44.66862477 -27.3125 39.9375 C-32.27360548 32.78767152 -32.05314364 25.29200291 -31.4375 16.875 C-29.86392509 8.9702448 -24.70336845 4.4919557 -18.4375 -0.125 C-12.55909161 -2.08446946 -5.86148374 -1.91830377 0 0 Z " fill="#1D1D1D" transform="translate(363.4375,88.125)"/>
<path d="M0 0 C3.98563553 3.60605119 5.48471017 6.80878225 5.96557617 12.17724609 C5.96510745 13.5843993 5.94853108 14.99161615 5.91796875 16.3984375 C5.91372391 17.14461334 5.90947906 17.89078918 5.90510559 18.65957642 C5.88842382 21.02343098 5.85079339 23.38640676 5.8125 25.75 C5.79743949 27.3606647 5.78375348 28.97134287 5.77148438 30.58203125 C5.73855504 34.51335515 5.68684762 38.44402901 5.625 42.375 C7.605 42.375 9.585 42.375 11.625 42.375 C11.625 43.695 11.625 45.015 11.625 46.375 C4.695 46.375 -2.235 46.375 -9.375 46.375 C-9.045 45.055 -8.715 43.735 -8.375 42.375 C-7.055 42.375 -5.735 42.375 -4.375 42.375 C-4.87 25.05 -4.87 25.05 -5.375 7.375 C-8.11475885 6.46174705 -9.85448781 6.2119647 -12.6875 6.1875 C-13.42613281 6.17332031 -14.16476562 6.15914063 -14.92578125 6.14453125 C-18.03549033 6.34409729 -18.03549033 6.34409729 -23.375 8.375 C-23.375 19.265 -23.375 30.155 -23.375 41.375 C-21.725 41.705 -20.075 42.035 -18.375 42.375 C-18.375 43.695 -18.375 45.015 -18.375 46.375 C-25.635 46.375 -32.895 46.375 -40.375 46.375 C-40.375 45.055 -40.375 43.735 -40.375 42.375 C-37.405 41.88 -37.405 41.88 -34.375 41.375 C-34.045 29.825 -33.715 18.275 -33.375 6.375 C-35.685 6.375 -37.995 6.375 -40.375 6.375 C-40.13671875 4.484375 -40.13671875 4.484375 -39.375 2.375 C-34.79964984 -0.20646072 -29.56988998 -1.02460692 -24.375 -0.625 C-24.375 0.695 -24.375 2.015 -24.375 3.375 C-23.84390625 3.09785156 -23.3128125 2.82070312 -22.765625 2.53515625 C-22.05921875 2.17292969 -21.3528125 1.81070313 -20.625 1.4375 C-19.92890625 1.07785156 -19.2328125 0.71820313 -18.515625 0.34765625 C-12.49296997 -2.38891511 -5.99331399 -2.8856697 0 0 Z " fill="#1C1C1C" transform="translate(1022.375,88.625)"/>
<path d="M0 0 C3.93711859 3.37467308 5.99066302 6.50400758 6.73339844 11.67724609 C6.7741728 13.08387813 6.7944492 14.49121671 6.796875 15.8984375 C6.81341125 16.64461334 6.82994751 17.39078918 6.84698486 18.15957642 C6.89524291 20.5231365 6.91678476 22.88605435 6.9375 25.25 C6.9656785 26.86070901 6.99560856 28.47138839 7.02734375 30.08203125 C7.1009949 34.01296788 7.15070414 37.94355265 7.1875 41.875 C8.8375 42.205 10.4875 42.535 12.1875 42.875 C12.1875 44.195 12.1875 45.515 12.1875 46.875 C5.2575 46.875 -1.6725 46.875 -8.8125 46.875 C-8.8125 45.555 -8.8125 44.235 -8.8125 42.875 C-6.3375 42.38 -6.3375 42.38 -3.8125 41.875 C-3.71344697 37.53342948 -3.64094699 33.19246146 -3.59277344 28.85009766 C-3.57268699 27.3737441 -3.54541199 25.89746981 -3.51074219 24.42138672 C-3.46208816 22.29635038 -3.43950327 20.17236766 -3.421875 18.046875 C-3.40092773 16.7690918 -3.37998047 15.49130859 -3.35839844 14.17480469 C-3.54229188 10.80841394 -3.54229188 10.80841394 -5.68676758 8.45336914 C-8.27041962 6.53499192 -9.56730452 6.42028402 -12.75 6.5625 C-14.00103516 6.59923828 -14.00103516 6.59923828 -15.27734375 6.63671875 C-18.24246048 6.87129689 -18.24246048 6.87129689 -22.8125 7.875 C-22.8125 19.425 -22.8125 30.975 -22.8125 42.875 C-20.8325 42.875 -18.8525 42.875 -16.8125 42.875 C-16.8125 44.195 -16.8125 45.515 -16.8125 46.875 C-24.0725 46.875 -31.3325 46.875 -38.8125 46.875 C-38.8125 45.555 -38.8125 44.235 -38.8125 42.875 C-35.8425 42.38 -35.8425 42.38 -32.8125 41.875 C-32.4825 30.325 -32.1525 18.775 -31.8125 6.875 C-34.1225 6.875 -36.4325 6.875 -38.8125 6.875 C-38.8125 5.555 -38.8125 4.235 -38.8125 2.875 C-28.43892369 -0.56919134 -28.43892369 -0.56919134 -22.8125 -0.125 C-22.8125 1.195 -22.8125 2.515 -22.8125 3.875 C-22.12285156 3.5140625 -21.43320312 3.153125 -20.72265625 2.78125 C-13.60741233 -0.7324507 -7.6586945 -3.0634778 0 0 Z " fill="#171717" transform="translate(965.8125,88.125)"/>
<path d="M0 0 C4.31516672 3.05657643 5.66234274 5.99400756 7 11 C7.29487643 13.81848637 7.32502015 16.6054417 7.3125 19.4375 C7.32861328 20.16259766 7.34472656 20.88769531 7.36132812 21.63476562 C7.36659512 27.4969318 6.2026089 31.98521967 2.67578125 36.8125 C0.61272855 38.60954304 -1.24149241 39.91522562 -3.9921875 40.22265625 C-8.67568288 39.86034812 -11.76395593 38.51341927 -15 35 C-17.58849434 29.94209459 -18.49339038 25.77534903 -18.375 20.0625 C-18.36557373 19.3602832 -18.35614746 18.65806641 -18.34643555 17.93457031 C-18.15225906 11.27222816 -17.24839759 6.72533042 -12.9375 1.5 C-8.62229977 -0.7035065 -4.74476285 -0.89744692 0 0 Z " fill="#FCFCFC" transform="translate(1068,92)"/>
<path d="M0 0 C4.3955952 2.48446685 6.13549292 5.38063134 8 10 C8.42097528 13.17696964 8.41979849 16.29939658 8.375 19.5 C8.38660156 20.32886719 8.39820313 21.15773438 8.41015625 22.01171875 C8.38057183 28.21458466 7.04729191 32.29464997 3.25 37.3125 C0.16187976 39.62859018 -2.172844 39.86571382 -6 40 C-10.50547364 38.95221543 -12.48611469 36.81417082 -15 33 C-18.14372133 25.20806213 -18.47214286 15.33676341 -15.8125 7.3125 C-12.02656883 0.39338441 -7.61100879 -1.35614338 0 0 Z " fill="#FCFCFC" transform="translate(1237,92)"/>
<path d="M0 0 C8.58 0 17.16 0 26 0 C26 1.32 26 2.64 26 4 C23.36 4.33 20.72 4.66 18 5 C18 22.82 18 40.64 18 59 C20.31 59.66 22.62 60.32 25 61 C25 62.32 25 63.64 25 65 C16.75 65 8.5 65 0 65 C0 63.68 0 62.36 0 61 C2.97 60.505 2.97 60.505 6 60 C6.33 41.52 6.66 23.04 7 4 C4.69 4 2.38 4 0 4 C0 2.68 0 1.36 0 0 Z " fill="#1B1B1B" transform="translate(553,70)"/>
<path d="M0 0 C3.25 2.125 3.25 2.125 4.25 4.125 C4.4375 7.625 4.4375 7.625 4.25 11.125 C2.25 13.125 2.25 13.125 -1.3125 13.3125 C-4.75 13.125 -4.75 13.125 -5.75 12.125 C-5.82179964 10.60571962 -5.83392007 9.08332518 -5.8125 7.5625 C-5.80347656 6.73621094 -5.79445313 5.90992187 -5.78515625 5.05859375 C-5.77355469 4.42050781 -5.76195312 3.78242187 -5.75 3.125 C-10.1666639 2.77859499 -13.63030259 2.54081005 -17.625 4.625 C-22.86273762 10.78704426 -23.24425604 17.10336124 -23.03515625 24.921875 C-22.64711802 29.28066064 -22.01095621 33.32127367 -19.75 37.125 C-17.26686936 38.72188639 -17.26686936 38.72188639 -14.75 39.125 C-14.255 39.62 -14.255 39.62 -13.75 40.125 C-11.83759516 40.27752309 -9.91827201 40.34692773 -8 40.375 C-6.95328125 40.40078125 -5.9065625 40.4265625 -4.828125 40.453125 C-1.38553546 40.08614845 0.40060318 39.01795593 3.25 37.125 C3.91 37.125 4.57 37.125 5.25 37.125 C5.25 39.105 5.25 41.085 5.25 43.125 C-2.80266012 47.36922557 -10.73251305 48.46204099 -19.75 47.125 C-23.05537825 45.62888142 -25.30737513 43.7822224 -27.75 41.125 C-28.53375 40.3 -29.3175 39.475 -30.125 38.625 C-34.92605104 31.23876763 -34.5650302 22.57778748 -33.75 14.125 C-31.77234409 7.89495951 -28.06200283 3.77700194 -22.75 0.125 C-15.80528762 -3.2231322 -6.97188258 -3.37877854 0 0 Z " fill="#1A1A1A" transform="translate(463.75,88.875)"/>
<path d="M0 0 C1.65 0 3.3 0 5 0 C5 3.96 5 7.92 5 12 C9.62 12 14.24 12 19 12 C19 13.65 19 15.3 19 17 C14.38 17 9.76 17 5 17 C5.06894023 21.62699403 5.15693558 26.25308978 5.26245117 30.87939453 C5.29566372 32.45253522 5.32370717 34.02579401 5.34643555 35.59912109 C5.38005028 37.86346672 5.43236624 40.12673365 5.48828125 42.390625 C5.49467117 43.09181458 5.5010611 43.79300415 5.50764465 44.51544189 C5.62920913 48.57113724 6.00577562 51.14269563 9 54 C11.50880616 54.48261667 11.50880616 54.48261667 14.1875 54.25 C15.53908203 54.19585937 15.53908203 54.19585937 16.91796875 54.140625 C17.60503906 54.09421875 18.29210938 54.0478125 19 54 C19 55.32 19 56.64 19 58 C14.69283212 59.62006768 10.97506854 60.34592955 6.375 60.4375 C4.71597656 60.49744141 4.71597656 60.49744141 3.0234375 60.55859375 C0 60 0 60 -2.3359375 57.66015625 C-5.17397607 53.12329178 -5.13332044 49.23391894 -5.09765625 44.05078125 C-5.0962413 43.27816452 -5.09482635 42.50554779 -5.09336853 41.70951843 C-5.08777466 39.24380611 -5.07522333 36.77818485 -5.0625 34.3125 C-5.05748421 32.63997527 -5.05292144 30.96744912 -5.04882812 29.29492188 C-5.03780724 25.19657954 -5.02054684 21.09830521 -5 17 C-6.98 17 -8.96 17 -11 17 C-11 15.68 -11 14.36 -11 13 C-8.35261084 11.5393715 -7.10551666 11 -4 11 C-3.79503906 10.37351562 -3.59007812 9.74703125 -3.37890625 9.1015625 C-3.10949219 8.28429687 -2.84007812 7.46703125 -2.5625 6.625 C-2.29566406 5.81289062 -2.02882813 5.00078125 -1.75390625 4.1640625 C-1 2 -1 2 0 0 Z " fill="#212121" transform="translate(1186,76)"/>
<path d="M0 0 C1.9375 0.375 1.9375 0.375 4 1 C5.55033235 4.10066471 5.14728595 7.3795559 5.14526367 10.78271484 C5.14862228 11.58612808 5.1519809 12.38954132 5.15544128 13.21730042 C5.16496545 15.8818617 5.16689519 18.54636024 5.16796875 21.2109375 C5.17118053 23.0593773 5.17454454 24.90781684 5.17805481 26.7562561 C5.1840499 30.63503611 5.18589434 34.51379381 5.18530273 38.39257812 C5.18520114 43.36495442 5.19884893 48.33718783 5.21607494 53.30953026 C5.22718948 57.1287807 5.2292221 60.94799655 5.22869301 64.76726151 C5.22987412 66.60049558 5.23430322 68.43373051 5.24202538 70.2669487 C5.25181337 72.83089977 5.24895186 75.39454011 5.24291992 77.95849609 C5.24853943 78.7170842 5.25415894 79.4756723 5.25994873 80.25724792 C5.2375878 83.99420776 5.0859283 86.82836511 3 90 C2.01 90 1.02 90 0 90 C-2.31433973 84.49046724 -3.3771855 80.2665023 -3.38818359 74.21044922 C-3.39344055 73.4776474 -3.39869751 72.74484558 -3.40411377 71.98983765 C-3.41719773 69.59456359 -3.40861945 67.19996698 -3.3984375 64.8046875 C-3.40046115 63.12655511 -3.40337501 61.44842358 -3.40713501 59.77029419 C-3.41154225 56.26523407 -3.40517754 52.76040431 -3.39111328 49.25537109 C-3.37399571 44.77199476 -3.3838888 40.28915626 -3.40183067 35.80579948 C-3.41268933 32.34502128 -3.4092131 28.8843699 -3.4014473 25.4235878 C-3.39945242 23.77064067 -3.40187945 22.11768186 -3.40888596 20.46474838 C-3.41653794 18.15311047 -3.404846 15.84233564 -3.38818359 13.53076172 C-3.38579681 12.21808319 -3.38341003 10.90540466 -3.38095093 9.552948 C-2.97273356 5.74569894 -1.9171195 3.28582793 0 0 Z " fill="#1E1E1E" transform="translate(241,68)"/>
<path d="M0 0 C1.65 0 3.3 0 5 0 C5 3.96 5 7.92 5 12 C9.62 12 14.24 12 19 12 C19 13.65 19 15.3 19 17 C14.38 17 9.76 17 5 17 C5.09356443 21.64513161 5.19966409 26.2897438 5.31738281 30.93432617 C5.35566221 32.51432451 5.39051697 34.09440969 5.421875 35.67456055 C5.46754876 37.94611645 5.52553784 40.21707509 5.5859375 42.48828125 C5.59748871 43.19463211 5.60903992 43.90098297 5.62094116 44.6287384 C5.73071048 48.27741393 5.92142364 49.88213546 8 53 C11.75368558 53.76463965 15.16674876 54 19 54 C19 55.32 19 56.64 19 58 C13.31422184 60.52701252 7.11721326 60.79234099 1 60 C-2.12016374 58.19665113 -2.840449 57.47865299 -4 54 C-4.08518867 51.19573548 -4.1158852 48.4170365 -4.09765625 45.61328125 C-4.0962413 44.79627243 -4.09482635 43.97926361 -4.09336853 43.13749695 C-4.08777294 40.52912732 -4.07522129 37.92084366 -4.0625 35.3125 C-4.05748443 33.54362103 -4.05292162 31.77474072 -4.04882812 30.00585938 C-4.03780496 25.67053981 -4.02054338 21.33528448 -4 17 C-6.31 17 -8.62 17 -11 17 C-11 15.68 -11 14.36 -11 13 C-9.9275 12.71125 -8.855 12.4225 -7.75 12.125 C-4.98624191 10.98698196 -4.12581633 10.2251641 -2.64453125 7.57421875 C-1.66347129 5.07021373 -0.77752235 2.57403361 0 0 Z " fill="#181818" transform="translate(485,76)"/>
<path d="M0 0 C1.32 0 2.64 0 4 0 C4 3.96 4 7.92 4 12 C8.62 12 13.24 12 18 12 C18 13.65 18 15.3 18 17 C13.38 17 8.76 17 4 17 C4.12016818 21.32349782 4.2429404 25.64676103 4.37231445 29.9699707 C4.41550705 31.43932768 4.45719256 32.9087298 4.49731445 34.37817383 C4.55539882 36.49574355 4.61898098 38.61308937 4.68359375 40.73046875 C4.72025146 42.00301514 4.75690918 43.27556152 4.79467773 44.58666992 C4.9700792 47.50258896 5.33392883 50.16267905 6 53 C10.47254497 54.49084832 14.52745503 54.49084832 19 53 C18.67 54.65 18.34 56.3 18 58 C14.01493454 59.7711402 10.24912074 60.287343 5.9375 60.5 C4.93589844 60.5515625 3.93429687 60.603125 2.90234375 60.65625 C-0.49064657 59.88905973 -1.82611071 58.54575262 -3.9556427 55.84942627 C-5.86253526 52.47255784 -5.6138904 49.10888041 -5.48828125 45.3203125 C-5.48120651 44.50754852 -5.47413177 43.69478455 -5.46684265 42.85739136 C-5.43900674 40.27896377 -5.37629411 37.70276338 -5.3125 35.125 C-5.28740291 33.36982318 -5.26459221 31.61461209 -5.24414062 29.859375 C-5.18921623 25.57206753 -5.10302347 21.28641044 -5 17 C-6.98 17 -8.96 17 -11 17 C-11 15.68 -11 14.36 -11 13 C-10.113125 12.71125 -9.22625 12.4225 -8.3125 12.125 C-3.59824287 9.10075958 -2.13942055 5.04562458 0 0 Z " fill="#181818" transform="translate(1103,76)"/>
<path d="M0 0 C1.875 0.125 1.875 0.125 4 1 C5.95589273 5.54021783 6.25719516 9.53095217 6.2746582 14.43896484 C6.27976913 15.15850845 6.28488007 15.87805206 6.29014587 16.61940002 C6.30397492 18.98333195 6.30309005 21.34697008 6.30078125 23.7109375 C6.30467214 25.36471666 6.30900761 27.01849483 6.31376648 28.67227173 C6.32121452 32.13376102 6.32094791 35.59514829 6.31567383 39.05664062 C6.30988406 43.47707836 6.32680501 47.89709643 6.3500185 52.31746483 C6.36480169 55.73198866 6.36562127 59.14641251 6.36250877 62.56096268 C6.36301978 64.18993587 6.36821585 65.81891498 6.37832069 67.4478569 C6.46355149 83.10953019 6.46355149 83.10953019 3 90 C2.01 90 1.02 90 0 90 C-1.83729324 85.31418414 -2.28719534 81.12295652 -2.25878906 76.14624023 C-2.2622937 75.38286346 -2.26579834 74.61948669 -2.26940918 73.83297729 C-2.27816867 71.32475531 -2.2723985 68.81681831 -2.265625 66.30859375 C-2.26697317 64.55794725 -2.26891498 62.80730111 -2.27142334 61.05665588 C-2.27436665 57.39426089 -2.27010199 53.73196368 -2.26074219 50.06958008 C-2.24933968 45.37988993 -2.25591719 40.69042852 -2.26788712 36.00074673 C-2.27511994 32.38819154 -2.27281139 28.77569045 -2.26763153 25.16313362 C-2.26629941 23.43400101 -2.2679274 21.70486345 -2.27259064 19.97573662 C-2.2776802 17.55848075 -2.26991201 15.1415937 -2.25878906 12.72436523 C-2.26283752 12.01305954 -2.26688599 11.30175385 -2.27105713 10.56889343 C-2.23736044 6.60796742 -1.74081596 3.5693531 0 0 Z " fill="#191919" transform="translate(222,68)"/>
<path d="M0 0 C0.66 0.33 1.32 0.66 2 1 C2 4.3 2 7.6 2 11 C-2.875 10.125 -2.875 10.125 -4 9 C-7.57425125 8.50357622 -8.73678192 8.80411678 -11.6875 11 C-12.450625 11.66 -13.21375 12.32 -14 13 C-14.66 13 -15.32 13 -16 13 C-16 23.23 -16 33.46 -16 44 C-13.36 44 -10.72 44 -8 44 C-8 45.32 -8 46.64 -8 48 C-15.92 48 -23.84 48 -32 48 C-32 46.68 -32 45.36 -32 44 C-29.03 43.505 -29.03 43.505 -26 43 C-25.67 31.45 -25.34 19.9 -25 8 C-27.64 8 -30.28 8 -33 8 C-32.7578125 6.109375 -32.7578125 6.109375 -32 4 C-27.06161289 1.15989754 -21.57513198 0.64414051 -16 1 C-15.67 3.31 -15.34 5.62 -15 8 C-14.443125 7.236875 -13.88625 6.47375 -13.3125 5.6875 C-9.30112573 1.0256326 -6.17879184 -0.54922594 0 0 Z " fill="#1B1B1B" transform="translate(1294,87)"/>
<path d="M0 0 C10.24468085 0 10.24468085 0 13.875 1.25 C14.95394531 1.59804687 14.95394531 1.59804687 16.0546875 1.953125 C18.58384637 3.31419845 19.60560253 4.48150365 21 7 C21.43359375 10.05859375 21.43359375 10.05859375 21.4375 13.4375 C21.46650391 15.10619141 21.46650391 15.10619141 21.49609375 16.80859375 C20.89141324 20.69854634 19.81049397 22.27598277 17 25 C12 27 12 27 0 27 C0 18.09 0 9.18 0 0 Z " fill="#FBFBFB" transform="translate(285,74)"/>
<path d="M0 0 C3.52232669 1.21100326 6.2863063 2.48933252 8.61328125 5.4140625 C8.5156081 10.6884126 7.33520658 13.69213717 3.61328125 17.4140625 C-0.87190686 20.11471832 -5.2915064 20.2893137 -10.38671875 19.4140625 C-14.11235502 17.59144907 -16.5980503 15.29789614 -18.2109375 11.4453125 C-19.04485811 7.46697566 -18.4846538 5.6099326 -16.63671875 1.9140625 C-12.26154473 -2.55860844 -5.5857239 -1.37129065 0 0 Z " fill="#F8F8F8" transform="translate(745.38671875,133.5859375)"/>
<path d="M0 0 C1.32 1.32 2.64 2.64 4 4 C2.58771178 7.49194184 1.15620593 8.82566816 -2.12109375 10.62890625 C-3.38783936 11.33817261 -3.38783936 11.33817261 -4.68017578 12.06176758 C-5.59009277 12.55700928 -6.50000977 13.05225098 -7.4375 13.5625 C-9.34042425 14.61874652 -11.24275466 15.67606351 -13.14453125 16.734375 C-14.11471191 17.27126953 -15.08489258 17.80816406 -16.08447266 18.36132812 C-18.92004706 19.95506246 -21.71960737 21.5971007 -24.51171875 23.265625 C-25.37289307 23.77794678 -26.23406738 24.29026855 -27.12133789 24.81811523 C-28.76666824 25.80017931 -30.4079365 26.78908721 -32.04467773 27.78540039 C-32.78532471 28.22360107 -33.52597168 28.66180176 -34.2890625 29.11328125 C-34.93568848 29.50298096 -35.58231445 29.89268066 -36.24853516 30.29418945 C-38 31 -38 31 -41 30 C-42.1875 27.4375 -42.1875 27.4375 -43 25 C-28.73145245 16.55413272 -14.37081367 8.27013727 0 0 Z " fill="#F7F7F7" transform="translate(173,104)"/>
<path d="M0 0 C4.29623151 0.84390262 5.74602872 2.36653463 8.5 5.6875 C8.83 6.0175 9.16 6.3475 9.5 6.6875 C10.02580895 11.74733371 10.51667634 16.91586199 7.625 21.3125 C5.10039649 24.13411569 4.36794048 24.61202691 0.625 24.9375 C-2.87476082 24.65751913 -4.048482 24.139018 -6.5 21.6875 C-9.3731522 16.97843466 -9.24065458 12.03410026 -8.5 6.6875 C-6.72869579 2.53600576 -4.4861544 0.8812089 0 0 Z " fill="#F7F7F7" transform="translate(738.5,90.3125)"/>
<path d="M0 0 C0 5.61 0 11.22 0 17 C-9.51824818 22.43899896 -9.51824818 22.43899896 -16 21 C-19.06018871 18.46228253 -19.83450185 16.88265681 -20.5625 13 C-19.7793611 8.82325922 -18.34953021 7.59759486 -15 5 C-10.3174358 2.55620993 -5.34040851 0 0 0 Z " fill="#F4F4F4" transform="translate(698,109)"/>
<path d="M0 0 C0 5.61 0 11.22 0 17 C-9.49895616 22.42797495 -9.49895616 22.42797495 -16 21 C-18.625 18.9375 -18.625 18.9375 -20 16 C-20 12.17504509 -19.77535291 9.94085748 -17.31640625 6.95703125 C-14.65251765 4.70642722 -12.16907937 3.54743707 -8.9375 2.25 C-7.89464844 1.82203125 -6.85179687 1.3940625 -5.77734375 0.953125 C-3 0 -3 0 0 0 Z " fill="#F6F6F6" transform="translate(409,109)"/>
<path d="M0 0 C0.13487595 2.77245014 0.23400807 5.53837088 0.3125 8.3125 C0.35439453 9.09818359 0.39628906 9.88386719 0.43945312 10.69335938 C0.48640247 12.89997838 0.47513118 14.84328271 0 17 C-2.39453125 18.98046875 -2.39453125 18.98046875 -5 20 C-5.66 20.33 -6.32 20.66 -7 21 C-14.76427256 21.89871087 -14.76427256 21.89871087 -18.0625 19.5 C-19.40758925 15.91309533 -19.87611312 12.71976842 -19 9 C-14.70299233 3.89004494 -6.77418874 0 0 0 Z " fill="#FAFAFA" transform="translate(1155,109)"/>
<path d="M0 0 C2.21964141 2.21964141 2.84038634 3.80371901 3.9453125 6.71875 C4.29980469 7.65074219 4.65429688 8.58273438 5.01953125 9.54296875 C5.38433594 10.51878906 5.74914062 11.49460937 6.125 12.5 C6.68380859 13.96373047 6.68380859 13.96373047 7.25390625 15.45703125 C10 22.72965316 10 22.72965316 10 25 C4.06 25 -1.88 25 -8 25 C-6.875 17.125 -6.875 17.125 -5.37109375 13.37890625 C-5.05849609 12.58935547 -4.74589844 11.79980469 -4.42382812 10.98632812 C-3.9355957 9.7865332 -3.9355957 9.7865332 -3.4375 8.5625 C-3.10814453 7.73556641 -2.77878906 6.90863281 -2.43945312 6.05664062 C-1.63314164 4.03501907 -0.81751877 2.01711551 0 0 Z " fill="#F6F6F6" transform="translate(889,81)"/>
<path d="M0 0 C2.50160818 1.87620613 3.61945652 3.23891303 5 6 C5 8.31 5 10.62 5 13 C-1.93 13 -8.86 13 -16 13 C-14.85279188 4.96954315 -14.85279188 4.96954315 -11 1 C-7.55258453 -0.72370774 -3.76964661 -0.50306672 0 0 Z " fill="#FAFAFA" transform="translate(796,92)"/>
<path d="M0 0 C2.50160818 1.87620613 3.61945652 3.23891303 5 6 C5 8.31 5 10.62 5 13 C-1.93 13 -8.86 13 -16 13 C-14.85279188 4.96954315 -14.85279188 4.96954315 -11 1 C-7.55258453 -0.72370774 -3.76964661 -0.50306672 0 0 Z " fill="#FAFAFA" transform="translate(358,92)"/>
<path d="M0 0 C0.99 1.98 1.98 3.96 3 6 C1.35 6.66 -0.3 7.32 -2 8 C-3.5625 6.1875 -3.5625 6.1875 -5 4 C-4.67 3.01 -4.34 2.02 -4 1 C-2 0 -2 0 0 0 Z " fill="#E9E9E9" transform="translate(184,99)"/>
<path d="M0 0 C0.99 0.99 1.98 1.98 3 3 C3 3.66 3 4.32 3 5 C0.03 5.66 -2.94 6.32 -6 7 C-4.02 4.69 -2.04 2.38 0 0 Z " fill="#F6F6F6" transform="translate(125,133)"/>
</svg>
