<?xml version="1.0" standalone="no"?>
<svg version="1.0" xmlns="http://www.w3.org/2000/svg"
 width="1322.000000pt" height="182.000000pt" viewBox="0 0 1322.000000 182.000000"
 preserveAspectRatio="xMidYMid meet">
<g transform="translate(0.000000,182.000000) scale(0.100000,-0.100000)"
fill="#000000" stroke="none">
<path d="M300 910 l0 -590 585 0 585 0 2 221 3 221 195 114 c107 62 199 115
203 116 8 3 -69 148 -78 148 -2 0 -74 -40 -159 -90 -85 -49 -157 -90 -160 -90
-4 0 -6 122 -6 270 l0 270 -585 0 -585 0 0 -590z m1130 281 l0 -259 -132 -77
c-89 -51 -154 -97 -194 -137 l-62 -60 -34 58 c-22 38 -42 60 -55 62 -11 2
-103 -34 -203 -78 -100 -45 -183 -80 -184 -78 -2 1 77 138 176 303 98 165 183
307 187 315 6 10 4 22 -4 34 -13 17 -18 17 -117 -14 -333 -102 -328 -100 -328
-120 0 -10 4 -21 8 -24 5 -3 89 20 186 50 98 30 180 53 182 51 3 -2 -82 -149
-187 -326 -243 -409 -246 -393 57 -257 169 76 219 95 226 84 4 -7 24 -42 44
-76 32 -57 39 -63 62 -59 18 3 30 -1 42 -15 16 -20 18 -20 89 -4 45 10 103 34
151 61 42 25 80 45 83 45 4 0 7 -68 7 -150 l0 -150 -542 2 -543 3 -3 538 -2
537 545 0 545 0 0 -259z m241 -254 c-13 -13 -403 -237 -412 -237 -5 0 -15 12
-23 28 l-14 27 211 122 212 121 17 -26 c10 -15 14 -30 9 -35z"/>
<path d="M2052 1220 c-15 -41 -16 -577 -2 -614 11 -30 25 -33 36 -8 10 22 18
499 9 568 -3 28 -12 60 -19 69 -12 17 -14 15 -24 -15z"/>
<path d="M5157 1226 c-100 -37 -163 -111 -193 -226 -28 -111 -1 -228 73 -310
54 -60 98 -85 179 -99 70 -13 151 -2 220 28 57 26 54 26 54 -4 0 -16 6 -25 15
-25 12 0 15 18 15 100 0 118 -12 129 -52 46 -33 -67 -79 -103 -149 -118 -156
-32 -259 88 -259 300 1 185 83 294 222 293 84 0 141 -35 181 -111 15 -30 32
-56 38 -58 5 -2 9 39 9 98 0 77 -3 101 -12 98 -7 -3 -14 -14 -16 -26 -2 -12
-4 -22 -6 -22 -1 0 -22 10 -47 22 -56 28 -213 36 -272 14z"/>
<path d="M2260 1221 c0 -6 18 -11 40 -11 l40 0 0 -295 0 -295 -40 0 c-29 0
-40 -4 -40 -15 0 -13 21 -15 130 -15 109 0 130 2 130 15 0 11 -12 15 -45 15
l-45 0 0 135 0 135 53 0 52 0 85 -148 85 -147 78 -3 c64 -2 77 0 77 13 0 10
-10 15 -29 15 -26 0 -37 13 -115 135 -47 75 -86 138 -86 140 0 3 6 5 13 5 23
0 96 58 118 93 15 24 19 44 16 83 -4 59 -26 94 -82 126 -38 22 -52 23 -237 26
-137 2 -198 0 -198 -7z m357 -37 c82 -53 83 -194 1 -244 -26 -15 -50 -20 -110
-20 l-78 0 0 138 c0 76 3 142 8 146 12 13 154 -3 179 -20z"/>
<path d="M8640 1228 c0 -2 -54 -138 -118 -303 l-118 -300 -38 -3 c-23 -2 -36
-8 -33 -15 2 -8 36 -13 95 -15 77 -2 92 0 92 13 0 11 -10 15 -35 15 -19 0 -35
3 -35 7 0 4 17 51 37 105 l38 98 111 0 111 0 40 -102 39 -103 -33 -3 c-21 -2
-33 -9 -33 -18 0 -11 22 -14 116 -14 88 0 115 3 112 13 -3 6 -18 13 -34 15
-29 3 -32 9 -150 305 -103 261 -122 302 -142 305 -12 2 -22 2 -22 0z m44 -236
c25 -65 46 -121 46 -125 0 -4 -43 -7 -96 -7 -87 0 -96 2 -90 18 31 82 89 232
92 232 1 0 23 -53 48 -118z"/>
<path d="M4473 1158 c-31 -10 -33 -14 -33 -59 l0 -48 -37 -3 c-52 -4 -56 -28
-4 -28 l41 0 0 -165 c0 -176 7 -212 50 -250 31 -28 109 -28 140 0 29 26 53 73
46 91 -9 23 -21 16 -35 -21 -24 -66 -91 -83 -112 -28 -5 13 -9 103 -9 199 l0
174 80 0 c64 0 80 3 80 15 0 12 -16 15 -80 15 l-80 0 0 60 c0 33 -3 60 -7 59
-5 -1 -23 -6 -40 -11z"/>
<path d="M10883 1158 c-31 -10 -33 -14 -33 -59 l0 -48 -37 -3 c-52 -4 -56 -28
-4 -28 l40 0 3 -182 c3 -164 5 -186 23 -210 39 -53 130 -61 172 -15 29 32 45
66 39 83 -9 23 -20 16 -39 -25 -28 -61 -92 -75 -111 -25 -3 8 -6 96 -6 195 l0
179 80 0 c64 0 80 3 80 15 0 12 -16 15 -80 15 l-80 0 0 60 c0 33 -3 60 -7 59
-5 -1 -23 -6 -40 -11z"/>
<path d="M11743 1158 c-31 -10 -33 -13 -33 -59 l0 -49 -35 0 c-24 0 -35 -5
-35 -15 0 -10 11 -15 35 -15 l35 0 0 -165 c0 -176 7 -212 50 -250 16 -14 36
-20 70 -20 40 0 54 5 79 29 32 31 48 73 32 89 -6 6 -17 -5 -30 -31 -24 -47
-52 -66 -82 -57 -33 11 -39 47 -39 231 l0 174 86 0 c64 0 85 3 82 13 -3 8 -32
13 -86 15 l-82 3 0 59 c0 33 -3 60 -7 59 -5 -1 -23 -6 -40 -11z"/>
<path d="M3081 1049 c-63 -12 -108 -46 -139 -104 -22 -41 -27 -63 -27 -125 0
-92 27 -155 83 -193 101 -70 260 -47 307 44 22 42 1 37 -45 -10 -30 -30 -49
-41 -84 -46 -91 -14 -156 50 -172 168 l-7 47 124 0 c161 0 193 13 197 81 2 34
-2 52 -18 72 -44 56 -135 83 -219 66z m103 -29 c52 -19 74 -111 35 -146 -18
-16 -35 -19 -117 -17 -52 1 -97 5 -101 8 -3 3 4 31 14 63 30 85 95 121 169 92z"/>
<path d="M3535 1051 c-64 -16 -109 -55 -103 -93 2 -18 9 -23 33 -23 25 0 33 6
47 37 10 20 27 42 39 49 29 15 86 3 115 -26 20 -20 24 -34 24 -85 l0 -60 -38
0 c-63 0 -155 -20 -190 -42 -61 -37 -78 -106 -42 -166 20 -32 71 -62 107 -62
42 0 97 24 134 57 27 24 39 30 39 20 0 -9 11 -28 24 -43 28 -34 87 -37 117 -7
25 25 37 83 17 83 -9 0 -18 -13 -22 -30 -6 -34 -31 -49 -49 -31 -8 8 -14 70
-17 181 l-5 170 -31 31 c-43 43 -121 59 -199 40z m151 -336 c-3 -11 -19 -35
-37 -53 -25 -25 -40 -32 -71 -32 -54 0 -75 14 -87 56 -12 44 6 96 39 114 12 7
52 15 89 18 l66 7 3 -44 c2 -25 1 -54 -2 -66z"/>
<path d="M4086 1049 c-64 -15 -103 -45 -130 -102 -66 -138 -30 -278 87 -339
48 -25 156 -29 197 -8 35 17 90 71 90 87 0 22 -19 14 -51 -21 -74 -85 -186
-67 -241 37 -17 33 -22 60 -22 122 -1 129 39 192 128 202 48 6 72 -11 82 -55
11 -54 23 -72 47 -72 30 0 47 18 47 51 0 39 -56 84 -120 98 -58 12 -60 12
-114 0z"/>
<path d="M5716 1043 c-57 -21 -92 -60 -81 -92 11 -37 56 -24 79 22 23 48 54
64 103 51 48 -12 73 -48 80 -117 l6 -57 -45 0 c-134 0 -230 -42 -248 -109 -22
-84 32 -156 118 -156 69 1 94 10 135 51 25 26 37 32 37 21 0 -9 11 -28 24 -43
47 -56 146 -20 146 52 0 31 -24 28 -28 -4 -4 -26 -27 -46 -46 -39 -11 4 -15
40 -18 169 -4 179 -12 208 -69 242 -43 25 -135 30 -193 9z m184 -263 c0 -49
-31 -114 -64 -136 -26 -16 -68 -21 -102 -10 -35 11 -56 83 -37 131 10 28 82
55 146 55 l57 0 0 -40z"/>
<path d="M6391 1050 c-45 -11 -80 -38 -102 -80 l-19 -35 0 58 0 57 -80 0 c-64
0 -80 -3 -80 -15 0 -11 11 -15 40 -15 l40 0 0 -188 c0 -203 -2 -212 -52 -212
-18 0 -28 -5 -28 -15 0 -12 19 -15 115 -15 96 0 115 3 115 15 0 11 -11 15 -36
15 l-36 0 3 143 c4 128 7 146 28 180 36 58 102 83 152 57 40 -22 49 -61 49
-209 0 -152 -6 -171 -56 -171 -15 0 -24 -6 -24 -15 0 -13 20 -15 121 -15 92 0
120 3 117 13 -3 6 -21 13 -41 15 l-37 3 0 153 c0 112 -4 163 -15 189 -14 35
-67 87 -88 87 -7 0 -21 2 -32 4 -11 3 -35 1 -54 -4z"/>
<path d="M7355 1051 c-64 -16 -109 -55 -103 -93 2 -18 9 -23 33 -23 25 0 33 6
48 38 23 50 54 64 107 48 51 -15 70 -44 73 -112 l2 -54 -35 -3 c-82 -6 -167
-25 -198 -44 -61 -38 -78 -106 -42 -166 20 -32 71 -62 107 -62 42 0 97 24 134
57 27 24 39 30 39 20 0 -9 11 -28 24 -43 28 -34 87 -37 117 -7 25 25 37 83 17
83 -9 0 -18 -13 -22 -30 -6 -34 -31 -49 -49 -31 -8 8 -14 70 -17 181 l-5 170
-31 31 c-43 43 -121 59 -199 40z m165 -267 c0 -46 -23 -98 -56 -129 -20 -19
-38 -25 -70 -25 -60 0 -84 25 -84 85 0 76 29 94 165 108 41 4 45 1 45 -39z"/>
<path d="M7846 1045 c-59 -21 -91 -57 -91 -105 0 -57 29 -89 127 -140 104 -54
128 -75 128 -110 0 -58 -93 -98 -161 -70 -31 13 -68 74 -69 113 0 9 -7 17 -15
17 -12 0 -15 -16 -15 -80 0 -48 4 -80 10 -80 6 0 13 6 16 14 5 12 11 12 42 -1
20 -9 67 -17 103 -17 54 -1 72 3 102 24 40 28 57 57 57 101 0 60 -25 87 -124
135 -97 46 -119 63 -131 102 -10 34 42 82 90 82 60 0 101 -23 115 -64 18 -55
30 -43 30 29 0 37 -4 65 -10 65 -5 0 -10 -7 -10 -16 0 -11 -6 -14 -22 -8 -84
27 -118 28 -172 9z"/>
<path d="M9315 1053 c-49 -11 -79 -29 -106 -65 l-28 -39 -3 48 -3 48 -77 3
c-65 2 -78 0 -78 -13 0 -11 11 -15 40 -15 l40 0 0 -190 c0 -177 -1 -190 -19
-200 -11 -5 -29 -10 -40 -10 -12 0 -21 -7 -21 -15 0 -12 20 -15 116 -15 88 0
115 3 112 13 -3 6 -19 13 -37 15 l-33 3 4 142 c3 112 7 149 21 175 32 59 108
88 159 61 37 -20 48 -69 48 -213 0 -146 -7 -166 -56 -166 -15 0 -24 -6 -24
-15 0 -13 20 -15 121 -15 92 0 120 3 117 13 -3 6 -21 13 -41 15 l-37 3 0 148
c0 160 -8 200 -48 244 -21 22 -82 50 -102 46 -3 -1 -14 -3 -25 -6z"/>
<path d="M9897 1046 c-45 -17 -65 -32 -88 -69 l-17 -29 -7 51 -7 51 -74 0
c-59 0 -74 -3 -74 -15 0 -11 11 -15 40 -15 l40 0 0 -184 c0 -200 -4 -216 -56
-216 -15 0 -24 -6 -24 -15 0 -12 20 -15 116 -15 88 0 115 3 112 13 -3 6 -19
13 -36 15 l-32 3 0 135 c0 151 9 184 59 227 34 28 86 36 120 17 36 -19 51 -82
51 -213 0 -135 -11 -167 -56 -167 -15 0 -24 -6 -24 -15 0 -12 20 -15 116 -15
88 0 115 3 112 13 -3 6 -19 13 -36 15 l-32 3 0 129 c0 206 -24 273 -108 298
-48 14 -48 14 -95 -2z"/>
<path d="M10427 1049 c-114 -27 -177 -108 -177 -229 0 -97 43 -170 124 -212
49 -26 143 -28 197 -5 54 22 107 83 124 140 19 64 19 90 -1 158 -21 69 -74
122 -146 144 -57 17 -66 17 -121 4z m112 -37 c56 -28 76 -79 75 -192 0 -111
-23 -168 -76 -196 -39 -20 -110 -14 -140 12 -74 67 -80 279 -10 357 35 40 96
47 151 19z"/>
<path d="M11249 1045 c-57 -18 -82 -44 -77 -82 2 -22 9 -29 31 -31 24 -3 29 2
46 42 17 37 25 46 53 51 73 14 120 -29 126 -114 l4 -58 -80 -6 c-140 -11 -212
-58 -212 -139 0 -127 158 -172 256 -74 l32 32 16 -33 c20 -42 57 -58 103 -42
35 11 46 25 57 72 10 41 -17 35 -33 -8 -14 -41 -48 -49 -56 -12 -2 12 -6 90
-7 172 -3 166 -11 190 -68 220 -44 23 -137 27 -191 10z m164 -347 c-26 -45
-65 -70 -107 -70 -46 0 -73 23 -82 69 -14 72 32 113 134 122 l67 6 3 -48 c2
-33 -3 -58 -15 -79z"/>
<path d="M12190 1051 c-70 -14 -140 -69 -167 -131 -20 -46 -19 -146 2 -198 24
-59 94 -118 155 -131 53 -11 140 -1 169 21 84 63 114 117 114 209 0 115 -56
194 -161 225 -49 15 -58 15 -112 5z m104 -35 c53 -22 80 -90 80 -197 -1 -146
-56 -219 -154 -206 -83 11 -125 86 -123 219 1 83 15 127 51 160 44 41 88 48
146 24z"/>
<path d="M6690 1035 c0 -9 9 -15 24 -15 19 0 28 -9 40 -42 9 -24 41 -110 71
-192 66 -180 77 -198 113 -194 25 3 32 17 107 213 70 182 83 210 104 215 14 3
26 11 29 18 3 9 -18 12 -77 12 -65 0 -81 -3 -81 -15 0 -10 11 -15 35 -15 19 0
35 -3 35 -7 0 -17 -124 -343 -130 -343 -4 0 -36 79 -72 175 l-66 175 39 0 c28
0 39 4 39 15 0 12 -18 15 -105 15 -87 0 -105 -3 -105 -15z"/>
<path d="M12547 1043 c-16 -15 -5 -23 33 -23 l40 0 0 -188 c0 -203 -2 -212
-53 -212 -18 0 -27 -4 -25 -12 3 -9 41 -14 131 -16 109 -2 127 0 127 13 0 11
-12 15 -51 15 l-52 0 5 138 c4 123 7 143 29 182 13 24 37 51 52 60 27 15 29
14 55 -18 38 -46 82 -39 82 14 0 84 -135 67 -197 -25 l-23 -34 0 57 0 56 -73
0 c-41 0 -77 -3 -80 -7z"/>
</g>
</svg>
